<svg fill="none" height="400" viewBox="0 0 400 400" width="400" xmlns="http://www.w3.org/2000/svg"><g fill="#000"><path clip-rule="evenodd" d="m200 55.1701c79.934 0 144.83 64.8959 144.83 144.8299s-64.896 144.83-144.83 144.83-144.8298-64.896-144.8298-144.83 64.8958-144.8299 144.8298-144.8299zm0 16.666c-70.736 0-128.1638 57.4279-128.1638 128.1639 0 70.735 57.4278 128.163 128.1638 128.163 70.735 0 128.163-57.428 128.163-128.163 0-70.736-57.428-128.1639-128.163-128.1639z" fill-rule="evenodd"/><path d="m164.779 179.317c11.672 0 21.134-9.463 21.134-21.135s-9.462-21.134-21.134-21.134-21.134 9.462-21.134 21.134 9.462 21.135 21.134 21.135z"/><path d="m235.22 179.317c11.672 0 21.135-9.463 21.135-21.135s-9.463-21.134-21.135-21.134-21.134 9.462-21.134 21.134 9.462 21.135 21.134 21.135z"/><path clip-rule="evenodd" d="m264.32 202.358c2.182.58 3.165 2.307 3.332 2.601.352.616.594 1.311.686 2.014.264 2.022-1.527 8.168-1.729 8.861-1.232 4.229-5.513 17.268-15.925 28.801-5.363 5.94-12.129 11.569-21.935 16.191-4.341 2.047-9.5 3.501-10.347 3.739-5.898 1.662-11.219 2.437-17.718 2.602-3.396.086-9.368-.231-14.354-1.209-9.842-1.93-16.32-4.959-21.112-7.64-11.671-6.532-18.391-15.089-21.336-19.126-2.751-3.77-8.636-12.398-12.08-25.327-.65-2.438-.951-4.115-1.008-4.385-.276-1.31-.351-1.316-.179-2.645.051-.394.347-2.667 2.461-4.318.323-.252 2.182-1.704 4.929-1.351 2.663.342 4.073 2.147 4.317 2.46.211.269 2.021 4.431 4.883 8.833.578.887 4.626 7.113 10.457 12.543 11.509 10.715 23.843 13.122 24.882 13.39 1.547.399 7.996 2.062 19.873 1.937 11.117-.116 16.662-1.817 19.529-2.651 9.294-2.705 21.773-9.803 31.246-24.079.498-.752 2.288-3.331 4.322-7.372.328-.651.537-1.376.985-1.951 1.385-1.78 3.296-2.024 3.627-2.066 1.105-.141 1.117-.138 2.194.148z" fill-rule="evenodd"/></g></svg>