<svg width="290" height="290" viewBox="0 0 290 290" fill="none" xmlns="http://www.w3.org/2000/svg">
<path fill-rule="evenodd" clip-rule="evenodd" d="M145 0.170105C224.934 0.170105 289.83 65.066 289.83 145C289.83 224.934 224.934 289.83 145 289.83C65.066 289.83 0.170197 224.934 0.170197 145C0.170197 65.066 65.066 0.170105 145 0.170105ZM145 16.8361C74.264 16.8361 16.8362 74.264 16.8362 145C16.8362 215.735 74.264 273.163 145 273.163C215.735 273.163 273.163 215.735 273.163 145C273.163 74.264 215.735 16.8361 145 16.8361Z" fill="#E8D4D9"/>
<path d="M109.779 124.317C121.451 124.317 130.913 114.854 130.913 103.182C130.913 91.51 121.451 82.048 109.779 82.048C98.107 82.048 88.645 91.51 88.645 103.182C88.645 114.854 98.107 124.317 109.779 124.317Z" fill="#E8D4D9"/>
<path d="M180.22 124.317C191.892 124.317 201.355 114.854 201.355 103.182C201.355 91.51 191.892 82.048 180.22 82.048C168.548 82.048 159.086 91.51 159.086 103.182C159.086 114.854 168.548 124.317 180.22 124.317Z" fill="#E8D4D9"/>
<path fill-rule="evenodd" clip-rule="evenodd" d="M209.32 147.358C211.502 147.938 212.485 149.665 212.652 149.959C213.004 150.575 213.246 151.27 213.338 151.973C213.602 153.995 211.811 160.141 211.609 160.834C210.377 165.063 206.096 178.102 195.684 189.635C190.321 195.575 183.555 201.204 173.749 205.826C169.408 207.873 164.249 209.327 163.402 209.565C157.504 211.227 152.183 212.002 145.684 212.167C142.288 212.253 136.316 211.936 131.33 210.958C121.488 209.028 115.01 205.999 110.218 203.318C98.547 196.786 91.827 188.229 88.882 184.192C86.131 180.422 80.246 171.794 76.802 158.865C76.152 156.427 75.851 154.75 75.794 154.48C75.518 153.17 75.443 153.164 75.615 151.835C75.666 151.441 75.962 149.168 78.076 147.517C78.399 147.265 80.258 145.813 83.005 146.166C85.668 146.508 87.078 148.313 87.322 148.626C87.533 148.895 89.343 153.057 92.205 157.459C92.783 158.346 96.831 164.572 102.662 170.002C114.171 180.717 126.505 183.124 127.544 183.392C129.091 183.791 135.54 185.454 147.417 185.329C158.534 185.213 164.079 183.512 166.946 182.678C176.24 179.973 188.719 172.875 198.192 158.599C198.69 157.847 200.48 155.268 202.514 151.227C202.842 150.576 203.051 149.851 203.499 149.276C204.884 147.496 206.795 147.252 207.126 147.21C208.231 147.069 208.243 147.072 209.32 147.358Z" fill="#E8D4D9"/>
</svg>
